<?xml version="1.0" standalone="no"?>
<!DOCTYPE svg PUBLIC "-//W3C//DTD SVG 20010904//EN"
 "http://www.w3.org/TR/2001/REC-SVG-20010904/DTD/svg10.dtd">
<svg version="1.0" xmlns="http://www.w3.org/2000/svg"
 width="3820.000000pt" height="3820.000000pt" viewBox="0 0 3820.000000 3820.000000"
 preserveAspectRatio="xMidYMid meet">
<metadata>
Created by potrace 1.11, written by Peter Selinger 2001-2013
</metadata>
<g transform="translate(0.000000,3820.000000) scale(0.100000,-0.100000)"
fill="#000000" stroke="none">
<path d="M17215 19393 c-47 -13 -105 -45 -136 -75 -77 -77 -96 -206 -46 -305
14 -29 23 -53 19 -54 -4 0 -18 -2 -32 -4 -14 -2 -42 -6 -64 -9 -66 -8 -54 -18
14 -11 36 4 74 8 85 9 11 1 34 -8 51 -21 140 -104 347 -53 415 102 17 38 30
50 82 76 34 17 84 47 110 66 121 89 83 149 -100 158 -64 3 -72 2 -43 -6 89
-26 111 -61 67 -109 -20 -23 -80 -70 -89 -70 -2 0 -5 14 -6 31 -3 41 -43 118
-79 151 -61 57 -177 91 -248 71z"/>
<path d="M18218 19302 c-43 -4 -40 10 -38 -162 l1 -115 -55 74 -55 73 32 45
c18 25 38 54 46 64 13 18 11 19 -40 19 l-54 0 -35 -55 c-19 -30 -38 -55 -41
-55 -3 0 -5 25 -4 55 l2 55 -49 0 -48 0 0 -139 0 -139 41 -4 c22 -2 44 1 48 7
4 5 7 39 6 74 -1 61 0 63 14 40 9 -13 48 -66 86 -119 39 -52 86 -116 105 -142
32 -46 35 -48 82 -48 26 0 48 3 48 8 0 4 -27 44 -60 90 -33 46 -60 85 -60 87
0 2 39 3 86 2 l86 -2 19 37 19 36 -65 -1 c-61 -2 -65 -1 -65 21 0 18 6 22 28
22 20 0 32 7 39 23 17 36 15 42 -17 43 -48 2 -50 3 -50 19 0 11 12 15 44 15
35 0 47 5 60 24 29 45 25 48 -49 50 -38 0 -87 0 -107 -2z"/>
<path d="M20492 19290 c-24 -11 -50 -33 -62 -52 -25 -42 -27 -119 -3 -159 20
-34 86 -69 128 -69 43 0 108 36 129 71 11 19 18 50 18 80 0 108 -108 174 -210
129z m126 -36 c28 -19 42 -53 42 -106 0 -32 -7 -47 -35 -75 -32 -32 -39 -35
-78 -30 -57 8 -97 52 -97 108 0 101 88 155 168 103z"/>
<path d="M18410 19160 c0 -86 4 -140 10 -141 6 -1 21 -1 35 -1 14 0 30 0 35 1
6 1 10 24 10 52 0 50 1 51 26 46 21 -4 29 1 45 27 23 38 24 43 2 43 -62 0 -73
4 -73 22 0 17 8 20 52 23 47 3 54 6 71 36 l19 32 -116 0 -116 0 0 -140z"/>
<path d="M18680 19160 c0 -133 1 -140 20 -140 19 0 20 7 20 140 0 133 -1 140
-20 140 -19 0 -20 -7 -20 -140z"/>
<path d="M18760 19161 c0 -128 1 -139 19 -144 18 -4 19 1 18 109 -1 63 -1 114
0 114 6 0 187 -200 191 -211 2 -5 8 -9 13 -9 5 0 9 59 8 140 -2 129 -3 140
-20 140 -16 0 -19 -11 -21 -94 l-3 -93 -83 93 c-51 57 -91 94 -103 94 -18 0
-19 -8 -19 -139z"/>
<path d="M19020 19285 c0 -11 12 -15 45 -15 l45 0 0 -125 c0 -118 1 -125 20
-125 19 0 20 7 20 125 l0 125 45 0 c33 0 45 4 45 15 0 12 -19 15 -110 15 -91
0 -110 -3 -110 -15z"/>
<path d="M19250 19160 l0 -140 28 -1 c85 -3 136 2 143 13 7 10 -8 14 -61 16
l-70 3 0 49 0 49 57 3 c81 4 85 28 4 28 l-61 0 0 45 0 45 64 0 c48 0 65 4 70
15 4 13 -9 15 -84 15 l-90 0 0 -140z"/>
<path d="M19440 19161 c0 -134 1 -141 20 -141 18 0 20 7 20 60 0 57 1 60 24
60 17 0 32 -12 53 -44 15 -24 33 -51 38 -59 6 -9 21 -17 35 -17 57 -4 56 -9
54 112 l-2 112 47 -50 c25 -27 73 -80 106 -117 l60 -68 0 145 c0 132 -2 146
-17 146 -20 0 -21 -3 -19 -115 l2 -80 -33 36 c-18 20 -57 64 -87 98 -34 39
-62 61 -75 61 -21 0 -22 -4 -20 -136 l1 -135 -39 60 -38 60 24 26 c17 19 23
34 20 53 -9 47 -37 66 -109 70 l-65 4 0 -141z m111 99 c12 -7 19 -21 19 -40 0
-31 -22 -50 -59 -50 -10 0 -22 -6 -24 -12 -3 -7 -6 15 -6 50 -1 60 0 62 25 62
14 0 34 -5 45 -10z"/>
<path d="M19970 19173 c-29 -71 -54 -134 -57 -140 -3 -8 3 -13 14 -13 14 0 25
12 35 39 l16 40 57 0 c57 0 57 -1 74 -40 9 -21 21 -41 27 -43 32 -12 27 18
-24 147 -41 104 -58 137 -72 137 -13 0 -30 -32 -70 -127z m94 13 c20 -61 13
-66 -66 -57 -4 1 3 28 15 61 12 32 25 56 28 52 4 -4 14 -29 23 -56z"/>
<path d="M20100 19286 c-10 -13 -4 -15 36 -18 l48 -3 1 -117 c0 -74 4 -121 11
-128 21 -21 28 11 26 132 l-1 118 49 0 c38 0 50 4 50 15 0 22 -202 22 -220 1z"/>
<path d="M20340 19160 c0 -130 1 -140 19 -140 17 0 19 10 19 140 0 131 -1 140
-19 140 -18 0 -19 -9 -19 -140z"/>
<path d="M20729 19283 c-1 -10 -2 -73 -3 -141 -1 -116 0 -122 19 -122 20 0 21
6 19 112 l-1 112 46 -50 c25 -27 73 -79 106 -116 l60 -67 0 142 c0 127 -2 142
-17 145 -20 4 -20 5 -19 -113 l1 -80 -21 25 c-130 154 -187 199 -190 153z"/>
<path d="M21051 19173 c-29 -71 -55 -134 -58 -140 -3 -8 3 -13 14 -13 14 0 25
12 35 39 l16 39 57 0 c57 -1 58 -1 74 -39 17 -41 15 -41 126 -41 89 0 103 3
109 18 5 13 -3 15 -52 14 -31 -1 -63 -1 -69 -1 -10 1 -13 33 -13 127 0 114 -2
125 -17 122 -16 -3 -19 -20 -23 -135 l-5 -132 -53 135 c-40 99 -58 134 -71
134 -13 0 -31 -34 -70 -127z m92 14 c9 -30 17 -56 17 -58 0 -6 -79 -3 -84 2
-6 6 36 109 44 109 3 0 14 -24 23 -53z"/>
<path d="M18795 18969 c-10 -15 3 -25 16 -12 7 7 7 13 1 17 -6 3 -14 1 -17 -5z"/>
<path d="M19896 18971 c-4 -5 -2 -12 3 -15 5 -4 12 -2 15 3 4 5 2 12 -3 15 -5
4 -12 2 -15 -3z"/>
<path d="M20140 18964 c0 -8 5 -12 10 -9 6 3 10 10 10 16 0 5 -4 9 -10 9 -5 0
-10 -7 -10 -16z"/>
<path d="M20576 18971 c-4 -5 -2 -12 3 -15 5 -4 12 -2 15 3 4 5 2 12 -3 15 -5
4 -12 2 -15 -3z"/>
<path d="M19435 18960 c-3 -5 -3 -14 0 -20 4 -6 -6 -10 -24 -10 -24 0 -32 -5
-37 -25 -3 -14 -3 -36 0 -50 5 -21 12 -25 44 -23 l38 1 0 69 c0 64 -7 81 -21
58z m-10 -48 c13 -9 11 -50 -3 -64 -16 -16 -32 0 -32 31 0 38 13 50 35 33z"/>
<path d="M20474 18955 c-21 -15 -15 -46 11 -60 42 -22 46 -26 35 -40 -12 -14
-27 -14 -47 -2 -8 5 -13 3 -13 -7 0 -11 10 -16 34 -16 59 0 71 46 19 70 -40
18 -40 46 0 42 15 -1 27 1 27 6 0 15 -48 20 -66 7z"/>
<path d="M18410 18896 c0 -39 4 -66 10 -66 6 0 10 6 9 13 -1 6 -1 30 1 52 l1
40 15 -47 c8 -27 17 -48 20 -48 3 0 13 19 24 43 l19 42 0 -47 c1 -27 6 -48 11
-48 11 0 12 51 3 103 -5 28 -33 39 -33 13 0 -8 -5 -27 -11 -43 l-11 -28 -12
40 c-7 24 -19 41 -29 43 -15 3 -17 -5 -17 -62z"/>
<path d="M19560 18895 l0 -65 35 0 c19 0 35 5 35 11 0 5 -10 9 -22 7 -21 -3
-23 1 -26 55 -4 78 -22 72 -22 -8z"/>
<path d="M21038 18946 c-19 -14 -14 -28 6 -20 10 4 12 -9 11 -46 -1 -32 2 -50
10 -50 14 0 14 122 0 126 -6 2 -18 -3 -27 -10z"/>
<path d="M21126 18947 c-29 -21 -17 -61 19 -67 l29 -5 -29 -22 c-23 -17 -26
-22 -12 -23 28 0 57 37 57 73 0 51 -28 70 -64 44z m42 -29 c-2 -13 -10 -23
-18 -23 -8 0 -16 10 -18 23 -3 17 2 22 18 22 16 0 21 -5 18 -22z"/>
<path d="M21216 18948 c3 -4 16 -8 29 -8 l24 0 -19 -46 c-22 -49 -24 -64 -12
-64 6 0 52 106 52 122 0 3 -18 5 -39 5 -22 -1 -38 -5 -35 -9z"/>
<path d="M21320 18940 c-21 -40 20 -86 50 -56 8 8 9 6 4 -7 -4 -10 -18 -23
-33 -29 -14 -6 -21 -12 -14 -15 35 -13 80 48 67 91 -13 40 -56 49 -74 16z m56
-22 c2 -19 -25 -33 -39 -19 -14 14 0 43 20 39 9 -2 17 -11 19 -20z"/>
<path d="M20053 18936 c-7 -8 -8 -17 -2 -23 5 -5 10 -24 12 -43 2 -28 7 -36
25 -38 12 -2 22 1 22 7 0 6 -6 10 -12 9 -21 -5 -22 54 -2 69 16 12 16 13 1 13
-9 0 -17 5 -17 10 0 14 -13 12 -27 -4z"/>
<path d="M18891 18931 c-8 -5 -20 -7 -26 -4 -9 3 -12 -10 -12 -46 2 -55 20
-65 22 -13 2 39 21 64 34 44 4 -8 6 -29 4 -49 -3 -25 0 -34 9 -31 17 6 14 76
-4 94 -8 8 -18 10 -27 5z"/>
<path d="M18990 18928 c-17 -6 -20 -15 -18 -50 3 -37 7 -43 26 -44 30 -2 39
-11 24 -26 -10 -10 -17 -10 -33 0 -23 15 -39 8 -22 -9 6 -6 26 -9 44 -7 29 2
34 7 34 28 0 19 -6 26 -26 28 -22 3 -26 8 -27 38 -1 22 3 34 12 34 23 0 26
-13 11 -37 -9 -13 -11 -23 -6 -23 15 0 42 31 35 41 -3 6 0 16 6 24 10 13 8 15
-13 13 -15 -1 -36 -6 -47 -10z"/>
<path d="M19812 18933 c-26 -5 -48 -38 -32 -48 6 -4 8 -15 5 -26 -5 -15 0 -20
24 -25 18 -4 34 -10 36 -14 9 -14 -26 -20 -47 -9 -22 12 -37 4 -21 -12 6 -6
26 -9 44 -7 29 2 34 7 34 28 0 20 -6 26 -27 28 -16 2 -28 8 -28 13 0 6 4 7 10
4 18 -11 44 13 46 44 2 31 1 32 -44 24z m18 -23 c11 -7 12 -12 3 -21 -16 -16
-44 -4 -37 16 7 17 13 18 34 5z"/>
<path d="M19973 18930 c-32 -13 -30 -46 3 -54 30 -8 26 -32 -5 -29 -11 2 -21
-2 -21 -8 0 -6 14 -9 33 -7 42 4 50 39 12 56 -34 16 -33 34 3 26 24 -7 26 -6
13 9 -7 10 -14 17 -15 16 0 0 -11 -4 -23 -9z"/>
<path d="M18570 18905 c-15 -40 3 -75 40 -75 37 0 55 35 40 75 -7 19 -17 25
-40 25 -23 0 -33 -6 -40 -25z m55 5 c23 -37 0 -85 -29 -61 -20 17 -9 71 14 71
5 0 12 -4 15 -10z"/>
<path d="M18684 18905 c11 -43 25 -75 34 -75 10 0 42 65 42 85 0 8 -4 15 -10
15 -5 0 -10 -8 -10 -18 0 -10 -6 -27 -14 -37 -12 -17 -14 -15 -20 18 -4 21
-12 37 -18 37 -6 0 -8 -10 -4 -25z"/>
<path d="M18794 18880 c1 -27 4 -50 8 -50 8 0 11 13 11 45 0 39 -4 55 -11 55
-5 0 -8 -22 -8 -50z"/>
<path d="M19144 18921 c3 -5 15 -7 26 -4 14 4 20 0 20 -11 0 -9 -8 -16 -20
-16 -22 0 -42 -30 -31 -48 4 -6 23 -11 43 -10 37 1 37 1 33 40 -6 51 -11 58
-46 58 -17 0 -28 -4 -25 -9z m51 -50 c3 -6 -4 -15 -15 -21 -17 -9 -20 -8 -20
10 0 20 24 28 35 11z"/>
<path d="M19253 18878 c1 -26 4 -48 9 -48 9 0 9 0 12 47 1 18 6 36 10 40 13
13 34 -26 30 -57 -4 -38 12 -40 17 -2 8 59 1 72 -40 70 l-38 -1 0 -49z"/>
<path d="M19662 18905 c-17 -38 3 -75 40 -75 21 0 32 7 40 25 17 38 -3 75 -40
75 -21 0 -32 -7 -40 -25z m68 -16 c0 -17 -20 -49 -31 -49 -15 0 -28 43 -17 63
7 14 13 15 28 7 11 -6 20 -15 20 -21z"/>
<path d="M19894 18880 c-1 -31 3 -49 9 -47 6 2 10 20 10 40 -2 54 -2 57 -11
57 -4 0 -8 -23 -8 -50z"/>
<path d="M20140 18880 c0 -27 5 -50 10 -50 6 0 10 23 10 50 0 28 -4 50 -10 50
-5 0 -10 -22 -10 -50z"/>
<path d="M20198 18905 c-16 -35 3 -75 36 -75 14 0 28 5 32 12 5 8 0 9 -15 5
-26 -6 -43 19 -34 52 4 15 11 20 23 16 10 -3 21 -1 25 5 4 6 -6 10 -25 10 -23
0 -33 -6 -42 -25z"/>
<path d="M20303 18914 c-6 -16 13 -38 40 -47 6 -2 7 -9 3 -15 -4 -7 -16 -10
-27 -7 -11 4 -19 2 -19 -5 0 -7 13 -10 33 -8 42 4 50 39 12 56 -29 13 -24 36
6 27 11 -4 19 -2 19 4 0 18 -60 13 -67 -5z"/>
<path d="M20578 18908 c-4 -31 3 -78 12 -78 4 0 7 23 7 50 1 50 -13 70 -19 28z"/>
<path d="M20639 18918 c-5 -38 -1 -82 7 -85 6 -2 11 12 11 32 0 43 19 68 33
45 6 -8 9 -22 9 -30 -3 -31 1 -50 10 -50 7 0 8 55 2 93 -1 10 -71 5 -72 -5z"/>
<path d="M20762 18918 c-7 -7 -12 -24 -12 -38 0 -14 5 -31 12 -38 15 -15 58
-16 58 -1 0 6 -9 9 -20 6 -22 -6 -35 21 -25 53 5 15 12 19 26 15 11 -4 19 -2
19 4 0 15 -43 14 -58 -1z"/>
<path d="M20856 18914 c-10 -25 -7 -59 6 -72 15 -15 55 -16 64 -1 4 7 0 9 -12
5 -21 -6 -53 9 -42 20 4 3 19 7 33 7 14 0 25 5 25 12 0 30 -13 45 -40 45 -16
0 -30 -7 -34 -16z m54 -15 c0 -5 -9 -9 -20 -9 -19 0 -26 11 -14 23 8 8 34 -3
34 -14z"/>
</g>
</svg>
